<mxfile host="app.diagrams.net" modified="2023-11-11T13:54:00.983Z" agent="Mozilla/5.0 (Windows NT 10.0; Win64; x64) AppleWebKit/537.36 (KHTML, like Gecko) Chrome/118.0.0.0 Safari/537.36" etag="mZrqzma8oA_hKGbuIZZC" version="22.1.0" type="device" pages="2">
  <diagram id="sKJtip_mproEmknZAczD" name="Сторінка-1">
    <mxGraphModel dx="1659" dy="2116" grid="1" gridSize="10" guides="1" tooltips="1" connect="1" arrows="1" fold="1" page="1" pageScale="1" pageWidth="827" pageHeight="1169" math="0" shadow="0">
      <root>
        <mxCell id="0" />
        <mxCell id="1" parent="0" />
        <mxCell id="EHuLVouOkNDQG8WxjrFL-1" value="Водій" style="swimlane;fontStyle=1;childLayout=stackLayout;horizontal=1;startSize=30;horizontalStack=0;resizeParent=1;resizeParentMax=0;resizeLast=0;collapsible=1;marginBottom=0;align=center;fontSize=14;" parent="1" vertex="1">
          <mxGeometry x="-150" y="-130" width="160" height="300" as="geometry" />
        </mxCell>
        <mxCell id="EHuLVouOkNDQG8WxjrFL-2" value="РК           ВодійID" style="text;strokeColor=#020203;fillColor=none;spacingLeft=4;spacingRight=4;overflow=hidden;rotatable=0;points=[[0,0.5],[1,0.5]];portConstraint=eastwest;fontSize=12;" parent="EHuLVouOkNDQG8WxjrFL-1" vertex="1">
          <mxGeometry y="30" width="160" height="30" as="geometry" />
        </mxCell>
        <mxCell id="EHuLVouOkNDQG8WxjrFL-3" value="Табельний номер" style="text;strokeColor=none;fillColor=none;spacingLeft=4;spacingRight=4;overflow=hidden;rotatable=0;points=[[0,0.5],[1,0.5]];portConstraint=eastwest;fontSize=12;align=center;" parent="EHuLVouOkNDQG8WxjrFL-1" vertex="1">
          <mxGeometry y="60" width="160" height="30" as="geometry" />
        </mxCell>
        <mxCell id="XsjsPqXZ4WURQ2wPjbYA-1" value="Прізвище" style="text;strokeColor=none;fillColor=none;spacingLeft=4;spacingRight=4;overflow=hidden;rotatable=0;points=[[0,0.5],[1,0.5]];portConstraint=eastwest;fontSize=12;align=center;" parent="EHuLVouOkNDQG8WxjrFL-1" vertex="1">
          <mxGeometry y="90" width="160" height="30" as="geometry" />
        </mxCell>
        <mxCell id="lO0q304Omid93AmPt_Ub-1" value="Ім&#39;я" style="text;strokeColor=none;fillColor=none;spacingLeft=4;spacingRight=4;overflow=hidden;rotatable=0;points=[[0,0.5],[1,0.5]];portConstraint=eastwest;fontSize=12;align=center;" parent="EHuLVouOkNDQG8WxjrFL-1" vertex="1">
          <mxGeometry y="120" width="160" height="30" as="geometry" />
        </mxCell>
        <mxCell id="lO0q304Omid93AmPt_Ub-2" value="По-батькові" style="text;strokeColor=none;fillColor=none;spacingLeft=4;spacingRight=4;overflow=hidden;rotatable=0;points=[[0,0.5],[1,0.5]];portConstraint=eastwest;fontSize=12;align=center;" parent="EHuLVouOkNDQG8WxjrFL-1" vertex="1">
          <mxGeometry y="150" width="160" height="30" as="geometry" />
        </mxCell>
        <mxCell id="n74ZDnQxtRxqGQg1wDJl-12" value="Рік народження" style="text;strokeColor=none;fillColor=none;spacingLeft=4;spacingRight=4;overflow=hidden;rotatable=0;points=[[0,0.5],[1,0.5]];portConstraint=eastwest;fontSize=12;align=center;" parent="EHuLVouOkNDQG8WxjrFL-1" vertex="1">
          <mxGeometry y="180" width="160" height="30" as="geometry" />
        </mxCell>
        <mxCell id="n74ZDnQxtRxqGQg1wDJl-2" value="FK          ГрафікID" style="text;strokeColor=none;fillColor=none;spacingLeft=4;spacingRight=4;overflow=hidden;rotatable=0;points=[[0,0.5],[1,0.5]];portConstraint=eastwest;fontSize=12;" parent="EHuLVouOkNDQG8WxjrFL-1" vertex="1">
          <mxGeometry y="210" width="160" height="30" as="geometry" />
        </mxCell>
        <mxCell id="OmzgltXMdFTZxrw7GUKl-1" value="FK    Номер тролейбусу" style="text;strokeColor=none;fillColor=none;spacingLeft=4;spacingRight=4;overflow=hidden;rotatable=0;points=[[0,0.5],[1,0.5]];portConstraint=eastwest;fontSize=12;" vertex="1" parent="EHuLVouOkNDQG8WxjrFL-1">
          <mxGeometry y="240" width="160" height="30" as="geometry" />
        </mxCell>
        <mxCell id="n74ZDnQxtRxqGQg1wDJl-13" value="FK     Номер маршруту" style="text;strokeColor=none;fillColor=none;spacingLeft=4;spacingRight=4;overflow=hidden;rotatable=0;points=[[0,0.5],[1,0.5]];portConstraint=eastwest;fontSize=12;" parent="EHuLVouOkNDQG8WxjrFL-1" vertex="1">
          <mxGeometry y="270" width="160" height="30" as="geometry" />
        </mxCell>
        <mxCell id="EHuLVouOkNDQG8WxjrFL-8" value="Тролейбус" style="swimlane;fontStyle=1;childLayout=stackLayout;horizontal=1;startSize=30;horizontalStack=0;resizeParent=1;resizeParentMax=0;resizeLast=0;collapsible=1;marginBottom=0;align=center;fontSize=14;" parent="1" vertex="1">
          <mxGeometry x="100" y="-200" width="180" height="150" as="geometry" />
        </mxCell>
        <mxCell id="EHuLVouOkNDQG8WxjrFL-9" value="РК     Номер тролейбусу" style="text;strokeColor=#020203;fillColor=none;spacingLeft=4;spacingRight=4;overflow=hidden;rotatable=0;points=[[0,0.5],[1,0.5]];portConstraint=eastwest;fontSize=12;" parent="EHuLVouOkNDQG8WxjrFL-8" vertex="1">
          <mxGeometry y="30" width="180" height="30" as="geometry" />
        </mxCell>
        <mxCell id="EHuLVouOkNDQG8WxjrFL-10" value="FK        Назва марки" style="text;strokeColor=none;fillColor=none;spacingLeft=4;spacingRight=4;overflow=hidden;rotatable=0;points=[[0,0.5],[1,0.5]];portConstraint=eastwest;fontSize=12;" parent="EHuLVouOkNDQG8WxjrFL-8" vertex="1">
          <mxGeometry y="60" width="180" height="30" as="geometry" />
        </mxCell>
        <mxCell id="EHuLVouOkNDQG8WxjrFL-11" value="К-сть пасажирських місць" style="text;strokeColor=none;fillColor=none;spacingLeft=4;spacingRight=4;overflow=hidden;rotatable=0;points=[[0,0.5],[1,0.5]];portConstraint=eastwest;fontSize=12;align=center;" parent="EHuLVouOkNDQG8WxjrFL-8" vertex="1">
          <mxGeometry y="90" width="180" height="30" as="geometry" />
        </mxCell>
        <mxCell id="EHuLVouOkNDQG8WxjrFL-12" value="Дата останнього тех.огляду" style="text;strokeColor=none;fillColor=none;spacingLeft=4;spacingRight=4;overflow=hidden;rotatable=0;points=[[0,0.5],[1,0.5]];portConstraint=eastwest;fontSize=12;align=center;" parent="EHuLVouOkNDQG8WxjrFL-8" vertex="1">
          <mxGeometry y="120" width="180" height="30" as="geometry" />
        </mxCell>
        <mxCell id="EHuLVouOkNDQG8WxjrFL-20" value="Маршут" style="swimlane;fontStyle=1;childLayout=stackLayout;horizontal=1;startSize=30;horizontalStack=0;resizeParent=1;resizeParentMax=0;resizeLast=0;collapsible=1;marginBottom=0;align=center;fontSize=14;" parent="1" vertex="1">
          <mxGeometry x="80" y="180" width="190" height="240" as="geometry" />
        </mxCell>
        <mxCell id="EHuLVouOkNDQG8WxjrFL-21" value="РК      Номер маршруту" style="text;strokeColor=#040505;fillColor=none;spacingLeft=4;spacingRight=4;overflow=hidden;rotatable=0;points=[[0,0.5],[1,0.5]];portConstraint=eastwest;fontSize=12;shadow=1;" parent="EHuLVouOkNDQG8WxjrFL-20" vertex="1">
          <mxGeometry y="30" width="190" height="30" as="geometry" />
        </mxCell>
        <mxCell id="EHuLVouOkNDQG8WxjrFL-49" value="Час початку " style="text;strokeColor=none;fillColor=none;spacingLeft=4;spacingRight=4;overflow=hidden;rotatable=0;points=[[0,0.5],[1,0.5]];portConstraint=eastwest;fontSize=12;align=center;" parent="EHuLVouOkNDQG8WxjrFL-20" vertex="1">
          <mxGeometry y="60" width="190" height="30" as="geometry" />
        </mxCell>
        <mxCell id="EHuLVouOkNDQG8WxjrFL-50" value="Час кінця " style="text;strokeColor=none;fillColor=none;spacingLeft=4;spacingRight=4;overflow=hidden;rotatable=0;points=[[0,0.5],[1,0.5]];portConstraint=eastwest;fontSize=12;align=center;" parent="EHuLVouOkNDQG8WxjrFL-20" vertex="1">
          <mxGeometry y="90" width="190" height="30" as="geometry" />
        </mxCell>
        <mxCell id="pcbJfFewiargXmMtec_k-35" value="Початковий пункт" style="text;strokeColor=none;fillColor=none;spacingLeft=4;spacingRight=4;overflow=hidden;rotatable=0;points=[[0,0.5],[1,0.5]];portConstraint=eastwest;fontSize=12;align=center;" parent="EHuLVouOkNDQG8WxjrFL-20" vertex="1">
          <mxGeometry y="120" width="190" height="30" as="geometry" />
        </mxCell>
        <mxCell id="pcbJfFewiargXmMtec_k-36" value="Кінцевий пункт" style="text;strokeColor=none;fillColor=none;spacingLeft=4;spacingRight=4;overflow=hidden;rotatable=0;points=[[0,0.5],[1,0.5]];portConstraint=eastwest;fontSize=12;align=center;" parent="EHuLVouOkNDQG8WxjrFL-20" vertex="1">
          <mxGeometry y="150" width="190" height="30" as="geometry" />
        </mxCell>
        <mxCell id="XsjsPqXZ4WURQ2wPjbYA-3" value="FK        СписокЗупинокID" style="text;strokeColor=none;fillColor=none;spacingLeft=4;spacingRight=4;overflow=hidden;rotatable=0;points=[[0,0.5],[1,0.5]];portConstraint=eastwest;fontSize=12;align=left;" parent="EHuLVouOkNDQG8WxjrFL-20" vertex="1">
          <mxGeometry y="180" width="190" height="30" as="geometry" />
        </mxCell>
        <mxCell id="pcbJfFewiargXmMtec_k-37" value="Тривалість маршруту" style="text;strokeColor=none;fillColor=none;spacingLeft=4;spacingRight=4;overflow=hidden;rotatable=0;points=[[0,0.5],[1,0.5]];portConstraint=eastwest;fontSize=12;align=center;" parent="EHuLVouOkNDQG8WxjrFL-20" vertex="1">
          <mxGeometry y="210" width="190" height="30" as="geometry" />
        </mxCell>
        <mxCell id="pcbJfFewiargXmMtec_k-19" value="Графік роботи" style="swimlane;fontStyle=1;childLayout=stackLayout;horizontal=1;startSize=30;horizontalStack=0;resizeParent=1;resizeParentMax=0;resizeLast=0;collapsible=1;marginBottom=0;align=center;fontSize=14;" parent="1" vertex="1">
          <mxGeometry x="-380" y="190" width="160" height="160" as="geometry" />
        </mxCell>
        <mxCell id="Viou8ezDQsFESu0MgYWw-1" value="РК         ГрафікID" style="text;strokeColor=#000000;fillColor=none;spacingLeft=4;spacingRight=4;overflow=hidden;rotatable=0;points=[[0,0.5],[1,0.5]];portConstraint=eastwest;fontSize=12;align=left;" parent="pcbJfFewiargXmMtec_k-19" vertex="1">
          <mxGeometry y="30" width="160" height="30" as="geometry" />
        </mxCell>
        <mxCell id="pcbJfFewiargXmMtec_k-20" value="Час початку роботи&#xa;" style="text;strokeColor=none;fillColor=none;spacingLeft=4;spacingRight=4;overflow=hidden;rotatable=0;points=[[0,0.5],[1,0.5]];portConstraint=eastwest;fontSize=12;align=center;" parent="pcbJfFewiargXmMtec_k-19" vertex="1">
          <mxGeometry y="60" width="160" height="30" as="geometry" />
        </mxCell>
        <mxCell id="pcbJfFewiargXmMtec_k-21" value="Час закінчення роботи" style="text;strokeColor=none;fillColor=none;spacingLeft=4;spacingRight=4;overflow=hidden;rotatable=0;points=[[0,0.5],[1,0.5]];portConstraint=eastwest;fontSize=12;align=center;" parent="pcbJfFewiargXmMtec_k-19" vertex="1">
          <mxGeometry y="90" width="160" height="30" as="geometry" />
        </mxCell>
        <mxCell id="EHuLVouOkNDQG8WxjrFL-5" value="Робочий день тижня" style="text;strokeColor=none;fillColor=none;spacingLeft=4;spacingRight=4;overflow=hidden;rotatable=0;points=[[0,0.5],[1,0.5]];portConstraint=eastwest;fontSize=12;align=center;" parent="pcbJfFewiargXmMtec_k-19" vertex="1">
          <mxGeometry y="120" width="160" height="40" as="geometry" />
        </mxCell>
        <mxCell id="lO0q304Omid93AmPt_Ub-8" value="Зупинка" style="swimlane;fontStyle=1;childLayout=stackLayout;horizontal=1;startSize=30;horizontalStack=0;resizeParent=1;resizeParentMax=0;resizeLast=0;collapsible=1;marginBottom=0;align=center;fontSize=14;" parent="1" vertex="1">
          <mxGeometry x="630" y="140" width="220" height="100" as="geometry">
            <mxRectangle x="460" y="160" width="140" height="30" as="alternateBounds" />
          </mxGeometry>
        </mxCell>
        <mxCell id="lO0q304Omid93AmPt_Ub-9" value="РК                  ЗупинкаID" style="text;strokeColor=#050402;fillColor=none;spacingLeft=4;spacingRight=4;overflow=hidden;rotatable=0;points=[[0,0.5],[1,0.5]];portConstraint=eastwest;fontSize=12;" parent="lO0q304Omid93AmPt_Ub-8" vertex="1">
          <mxGeometry y="30" width="220" height="30" as="geometry" />
        </mxCell>
        <mxCell id="T0ltggv8v2i_2mVabX_O-1" value="Назва зупинки" style="text;strokeColor=none;fillColor=none;spacingLeft=4;spacingRight=4;overflow=hidden;rotatable=0;points=[[0,0.5],[1,0.5]];portConstraint=eastwest;fontSize=12;align=center;" parent="lO0q304Omid93AmPt_Ub-8" vertex="1">
          <mxGeometry y="60" width="220" height="40" as="geometry" />
        </mxCell>
        <mxCell id="7zqDTVQiqLcNGYIcSqqf-1" value="" style="edgeStyle=entityRelationEdgeStyle;fontSize=12;html=1;endArrow=ERmandOne;startArrow=ERmandOne;rounded=0;entryX=1;entryY=0.5;entryDx=0;entryDy=0;exitX=0.003;exitY=0.103;exitDx=0;exitDy=0;exitPerimeter=0;" parent="1" source="EHuLVouOkNDQG8WxjrFL-8" target="OmzgltXMdFTZxrw7GUKl-1" edge="1">
          <mxGeometry width="100" height="100" relative="1" as="geometry">
            <mxPoint x="340" y="-130" as="sourcePoint" />
            <mxPoint x="230" y="100" as="targetPoint" />
            <Array as="points">
              <mxPoint x="300" y="50" />
              <mxPoint x="400" y="-10" />
              <mxPoint x="300" y="60" />
              <mxPoint x="300" y="20" />
              <mxPoint x="310" y="80" />
              <mxPoint x="400" y="-10" />
              <mxPoint x="430" y="-30" />
              <mxPoint x="400" y="-10" />
              <mxPoint x="300" y="80" />
            </Array>
          </mxGeometry>
        </mxCell>
        <mxCell id="Vi-JBN4YrtcNIYuGTw5I-4" value="" style="edgeStyle=entityRelationEdgeStyle;fontSize=12;html=1;endArrow=ERoneToMany;startArrow=ERmandOne;rounded=0;entryX=0;entryY=0.5;entryDx=0;entryDy=0;exitX=1;exitY=0.5;exitDx=0;exitDy=0;" parent="1" source="Viou8ezDQsFESu0MgYWw-1" target="n74ZDnQxtRxqGQg1wDJl-2" edge="1">
          <mxGeometry width="100" height="100" relative="1" as="geometry">
            <mxPoint x="-240" y="150" as="sourcePoint" />
            <mxPoint x="-280" y="20" as="targetPoint" />
          </mxGeometry>
        </mxCell>
        <mxCell id="n74ZDnQxtRxqGQg1wDJl-3" value="Марка" style="swimlane;fontStyle=1;childLayout=stackLayout;horizontal=1;startSize=30;horizontalStack=0;resizeParent=1;resizeParentMax=0;resizeLast=0;collapsible=1;marginBottom=0;align=center;fontSize=14;" parent="1" vertex="1">
          <mxGeometry x="390" y="-210" width="220" height="160" as="geometry">
            <mxRectangle x="460" y="160" width="140" height="30" as="alternateBounds" />
          </mxGeometry>
        </mxCell>
        <mxCell id="n74ZDnQxtRxqGQg1wDJl-4" value="РК              Назва марки" style="text;strokeColor=#050402;fillColor=none;spacingLeft=4;spacingRight=4;overflow=hidden;rotatable=0;points=[[0,0.5],[1,0.5]];portConstraint=eastwest;fontSize=12;" parent="n74ZDnQxtRxqGQg1wDJl-3" vertex="1">
          <mxGeometry y="30" width="220" height="30" as="geometry" />
        </mxCell>
        <mxCell id="n74ZDnQxtRxqGQg1wDJl-5" value="Рік випуску" style="text;strokeColor=none;fillColor=none;spacingLeft=4;spacingRight=4;overflow=hidden;rotatable=0;points=[[0,0.5],[1,0.5]];portConstraint=eastwest;fontSize=12;align=center;" parent="n74ZDnQxtRxqGQg1wDJl-3" vertex="1">
          <mxGeometry y="60" width="220" height="30" as="geometry" />
        </mxCell>
        <mxCell id="n74ZDnQxtRxqGQg1wDJl-9" value="Країна виробник" style="text;strokeColor=none;fillColor=none;spacingLeft=4;spacingRight=4;overflow=hidden;rotatable=0;points=[[0,0.5],[1,0.5]];portConstraint=eastwest;fontSize=12;align=center;" parent="n74ZDnQxtRxqGQg1wDJl-3" vertex="1">
          <mxGeometry y="90" width="220" height="30" as="geometry" />
        </mxCell>
        <mxCell id="n74ZDnQxtRxqGQg1wDJl-7" value="Технічна характеристика" style="text;strokeColor=none;fillColor=none;spacingLeft=4;spacingRight=4;overflow=hidden;rotatable=0;points=[[0,0.5],[1,0.5]];portConstraint=eastwest;fontSize=12;align=center;" parent="n74ZDnQxtRxqGQg1wDJl-3" vertex="1">
          <mxGeometry y="120" width="220" height="40" as="geometry" />
        </mxCell>
        <mxCell id="ORaDMpDgIFTWgcOh-HWE-4" value="" style="edgeStyle=entityRelationEdgeStyle;fontSize=12;html=1;endArrow=ERoneToMany;startArrow=ERmandOne;rounded=0;entryX=1;entryY=0.5;entryDx=0;entryDy=0;exitX=-0.003;exitY=0.048;exitDx=0;exitDy=0;exitPerimeter=0;" parent="1" source="EHuLVouOkNDQG8WxjrFL-20" target="n74ZDnQxtRxqGQg1wDJl-13" edge="1">
          <mxGeometry width="100" height="100" relative="1" as="geometry">
            <mxPoint x="110" y="130" as="sourcePoint" />
            <mxPoint x="210" y="30" as="targetPoint" />
          </mxGeometry>
        </mxCell>
        <mxCell id="hIkyyF5PJltiYkaGwP_G-1" value="Список зупинок" style="swimlane;fontStyle=1;childLayout=stackLayout;horizontal=1;startSize=30;horizontalStack=0;resizeParent=1;resizeParentMax=0;resizeLast=0;collapsible=1;marginBottom=0;align=center;fontSize=14;" vertex="1" parent="1">
          <mxGeometry x="340" y="20" width="220" height="100" as="geometry">
            <mxRectangle x="460" y="160" width="140" height="30" as="alternateBounds" />
          </mxGeometry>
        </mxCell>
        <mxCell id="hIkyyF5PJltiYkaGwP_G-2" value="РК              СписокЗупинокID" style="text;strokeColor=#050402;fillColor=none;spacingLeft=4;spacingRight=4;overflow=hidden;rotatable=0;points=[[0,0.5],[1,0.5]];portConstraint=eastwest;fontSize=12;" vertex="1" parent="hIkyyF5PJltiYkaGwP_G-1">
          <mxGeometry y="30" width="220" height="30" as="geometry" />
        </mxCell>
        <mxCell id="hIkyyF5PJltiYkaGwP_G-3" value="FK                 ЗупинкаID" style="text;strokeColor=none;fillColor=none;spacingLeft=4;spacingRight=4;overflow=hidden;rotatable=0;points=[[0,0.5],[1,0.5]];portConstraint=eastwest;fontSize=12;align=left;" vertex="1" parent="hIkyyF5PJltiYkaGwP_G-1">
          <mxGeometry y="60" width="220" height="40" as="geometry" />
        </mxCell>
        <mxCell id="hIkyyF5PJltiYkaGwP_G-6" value="" style="edgeStyle=entityRelationEdgeStyle;fontSize=12;html=1;endArrow=ERmandOne;startArrow=ERmandOne;rounded=0;entryX=1;entryY=0.5;entryDx=0;entryDy=0;exitX=0.003;exitY=0.066;exitDx=0;exitDy=0;exitPerimeter=0;" edge="1" parent="1" source="hIkyyF5PJltiYkaGwP_G-1" target="XsjsPqXZ4WURQ2wPjbYA-3">
          <mxGeometry width="100" height="100" relative="1" as="geometry">
            <mxPoint x="105" y="-172" as="sourcePoint" />
            <mxPoint x="20" y="135" as="targetPoint" />
            <Array as="points">
              <mxPoint x="310" y="60" />
              <mxPoint x="410" />
              <mxPoint x="310" y="70" />
              <mxPoint x="310" y="30" />
              <mxPoint x="320" y="90" />
              <mxPoint x="410" />
              <mxPoint x="440" y="-20" />
              <mxPoint x="410" />
              <mxPoint x="310" y="90" />
            </Array>
          </mxGeometry>
        </mxCell>
        <mxCell id="hIkyyF5PJltiYkaGwP_G-9" value="" style="edgeStyle=entityRelationEdgeStyle;fontSize=12;html=1;endArrow=ERoneToMany;startArrow=ERmandOne;rounded=0;exitX=1;exitY=0.5;exitDx=0;exitDy=0;entryX=-0.003;entryY=0.165;entryDx=0;entryDy=0;entryPerimeter=0;" edge="1" parent="1" source="hIkyyF5PJltiYkaGwP_G-3" target="lO0q304Omid93AmPt_Ub-8">
          <mxGeometry width="100" height="100" relative="1" as="geometry">
            <mxPoint x="510" y="260" as="sourcePoint" />
            <mxPoint x="590" y="270" as="targetPoint" />
            <Array as="points">
              <mxPoint x="580" y="200" />
              <mxPoint x="580" y="190" />
              <mxPoint x="580" y="220" />
            </Array>
          </mxGeometry>
        </mxCell>
        <mxCell id="hIkyyF5PJltiYkaGwP_G-10" value="" style="edgeStyle=entityRelationEdgeStyle;fontSize=12;html=1;endArrow=ERmandOne;startArrow=ERmandOne;rounded=0;entryX=1;entryY=0.5;entryDx=0;entryDy=0;exitX=-0.001;exitY=0.117;exitDx=0;exitDy=0;exitPerimeter=0;" edge="1" parent="1" source="n74ZDnQxtRxqGQg1wDJl-3" target="EHuLVouOkNDQG8WxjrFL-10">
          <mxGeometry width="100" height="100" relative="1" as="geometry">
            <mxPoint x="310" y="-140" as="sourcePoint" />
            <mxPoint x="219" y="170" as="targetPoint" />
            <Array as="points">
              <mxPoint x="509" y="95" />
              <mxPoint x="609" y="35" />
              <mxPoint x="509" y="105" />
              <mxPoint x="509" y="65" />
              <mxPoint x="519" y="125" />
              <mxPoint x="609" y="35" />
              <mxPoint x="639" y="15" />
              <mxPoint x="609" y="35" />
              <mxPoint x="509" y="125" />
            </Array>
          </mxGeometry>
        </mxCell>
      </root>
    </mxGraphModel>
  </diagram>
  <diagram id="xITGCGtc_utXiVVcI0Vg" name="Сторінка-2">
    <mxGraphModel dx="951" dy="1879" grid="1" gridSize="10" guides="1" tooltips="1" connect="1" arrows="1" fold="1" page="1" pageScale="1" pageWidth="827" pageHeight="1169" math="0" shadow="0">
      <root>
        <mxCell id="Wh88uekVp4weN3XpvIQh-0" />
        <mxCell id="Wh88uekVp4weN3XpvIQh-1" parent="Wh88uekVp4weN3XpvIQh-0" />
        <mxCell id="Wh88uekVp4weN3XpvIQh-2" value="Водій" style="swimlane;fontStyle=0;childLayout=stackLayout;horizontal=1;startSize=30;horizontalStack=0;resizeParent=1;resizeParentMax=0;resizeLast=0;collapsible=1;marginBottom=0;align=center;fontSize=14;" parent="Wh88uekVp4weN3XpvIQh-1" vertex="1">
          <mxGeometry x="270" y="-80" width="160" height="240" as="geometry" />
        </mxCell>
        <mxCell id="Wh88uekVp4weN3XpvIQh-3" value="ID driver" style="text;strokeColor=none;fillColor=none;spacingLeft=4;spacingRight=4;overflow=hidden;rotatable=0;points=[[0,0.5],[1,0.5]];portConstraint=eastwest;fontSize=12;" parent="Wh88uekVp4weN3XpvIQh-2" vertex="1">
          <mxGeometry y="30" width="160" height="30" as="geometry" />
        </mxCell>
        <mxCell id="Wh88uekVp4weN3XpvIQh-41" value="ID графіку роботи" style="text;strokeColor=none;fillColor=none;spacingLeft=4;spacingRight=4;overflow=hidden;rotatable=0;points=[[0,0.5],[1,0.5]];portConstraint=eastwest;fontSize=12;" parent="Wh88uekVp4weN3XpvIQh-2" vertex="1">
          <mxGeometry y="60" width="160" height="30" as="geometry" />
        </mxCell>
        <mxCell id="Wh88uekVp4weN3XpvIQh-44" value="ID Маршруту" style="text;strokeColor=none;fillColor=none;spacingLeft=4;spacingRight=4;overflow=hidden;rotatable=0;points=[[0,0.5],[1,0.5]];portConstraint=eastwest;fontSize=12;" parent="Wh88uekVp4weN3XpvIQh-2" vertex="1">
          <mxGeometry y="90" width="160" height="30" as="geometry" />
        </mxCell>
        <mxCell id="Wh88uekVp4weN3XpvIQh-42" value="ID тролейбуса" style="text;strokeColor=none;fillColor=none;spacingLeft=4;spacingRight=4;overflow=hidden;rotatable=0;points=[[0,0.5],[1,0.5]];portConstraint=eastwest;fontSize=12;" parent="Wh88uekVp4weN3XpvIQh-2" vertex="1">
          <mxGeometry y="120" width="160" height="30" as="geometry" />
        </mxCell>
        <mxCell id="Wh88uekVp4weN3XpvIQh-4" value="Прізвище" style="text;strokeColor=none;fillColor=none;spacingLeft=4;spacingRight=4;overflow=hidden;rotatable=0;points=[[0,0.5],[1,0.5]];portConstraint=eastwest;fontSize=12;" parent="Wh88uekVp4weN3XpvIQh-2" vertex="1">
          <mxGeometry y="150" width="160" height="30" as="geometry" />
        </mxCell>
        <mxCell id="Wh88uekVp4weN3XpvIQh-36" value="Ім&#39;я" style="text;strokeColor=none;fillColor=none;spacingLeft=4;spacingRight=4;overflow=hidden;rotatable=0;points=[[0,0.5],[1,0.5]];portConstraint=eastwest;fontSize=12;" parent="Wh88uekVp4weN3XpvIQh-2" vertex="1">
          <mxGeometry y="180" width="160" height="30" as="geometry" />
        </mxCell>
        <mxCell id="Wh88uekVp4weN3XpvIQh-37" value="По-батькові" style="text;strokeColor=none;fillColor=none;spacingLeft=4;spacingRight=4;overflow=hidden;rotatable=0;points=[[0,0.5],[1,0.5]];portConstraint=eastwest;fontSize=12;" parent="Wh88uekVp4weN3XpvIQh-2" vertex="1">
          <mxGeometry y="210" width="160" height="30" as="geometry" />
        </mxCell>
        <mxCell id="Wh88uekVp4weN3XpvIQh-5" value="Тролейбус" style="swimlane;fontStyle=0;childLayout=stackLayout;horizontal=1;startSize=30;horizontalStack=0;resizeParent=1;resizeParentMax=0;resizeLast=0;collapsible=1;marginBottom=0;align=center;fontSize=14;" parent="Wh88uekVp4weN3XpvIQh-1" vertex="1">
          <mxGeometry x="600" y="20" width="180" height="150" as="geometry" />
        </mxCell>
        <mxCell id="Wh88uekVp4weN3XpvIQh-6" value="Номер автобуса" style="text;strokeColor=none;fillColor=none;spacingLeft=4;spacingRight=4;overflow=hidden;rotatable=0;points=[[0,0.5],[1,0.5]];portConstraint=eastwest;fontSize=12;" parent="Wh88uekVp4weN3XpvIQh-5" vertex="1">
          <mxGeometry y="30" width="180" height="30" as="geometry" />
        </mxCell>
        <mxCell id="Wh88uekVp4weN3XpvIQh-7" value="Марка" style="text;strokeColor=none;fillColor=none;spacingLeft=4;spacingRight=4;overflow=hidden;rotatable=0;points=[[0,0.5],[1,0.5]];portConstraint=eastwest;fontSize=12;" parent="Wh88uekVp4weN3XpvIQh-5" vertex="1">
          <mxGeometry y="60" width="180" height="30" as="geometry" />
        </mxCell>
        <mxCell id="Wh88uekVp4weN3XpvIQh-8" value="К-сть пасажирських місць" style="text;strokeColor=none;fillColor=none;spacingLeft=4;spacingRight=4;overflow=hidden;rotatable=0;points=[[0,0.5],[1,0.5]];portConstraint=eastwest;fontSize=12;" parent="Wh88uekVp4weN3XpvIQh-5" vertex="1">
          <mxGeometry y="90" width="180" height="30" as="geometry" />
        </mxCell>
        <mxCell id="Wh88uekVp4weN3XpvIQh-9" value="Дата останнього тех.огляду" style="text;strokeColor=none;fillColor=none;spacingLeft=4;spacingRight=4;overflow=hidden;rotatable=0;points=[[0,0.5],[1,0.5]];portConstraint=eastwest;fontSize=12;" parent="Wh88uekVp4weN3XpvIQh-5" vertex="1">
          <mxGeometry y="120" width="180" height="30" as="geometry" />
        </mxCell>
        <mxCell id="Wh88uekVp4weN3XpvIQh-10" value="Маршут" style="swimlane;fontStyle=0;childLayout=stackLayout;horizontal=1;startSize=30;horizontalStack=0;resizeParent=1;resizeParentMax=0;resizeLast=0;collapsible=1;marginBottom=0;align=center;fontSize=14;" parent="Wh88uekVp4weN3XpvIQh-1" vertex="1">
          <mxGeometry x="242" y="290" width="190" height="210" as="geometry" />
        </mxCell>
        <mxCell id="Wh88uekVp4weN3XpvIQh-11" value="Номер маршута" style="text;strokeColor=none;fillColor=none;spacingLeft=4;spacingRight=4;overflow=hidden;rotatable=0;points=[[0,0.5],[1,0.5]];portConstraint=eastwest;fontSize=12;" parent="Wh88uekVp4weN3XpvIQh-10" vertex="1">
          <mxGeometry y="30" width="190" height="30" as="geometry" />
        </mxCell>
        <mxCell id="Wh88uekVp4weN3XpvIQh-12" value="Час початку роботи тролейбусів" style="text;strokeColor=none;fillColor=none;spacingLeft=4;spacingRight=4;overflow=hidden;rotatable=0;points=[[0,0.5],[1,0.5]];portConstraint=eastwest;fontSize=12;" parent="Wh88uekVp4weN3XpvIQh-10" vertex="1">
          <mxGeometry y="60" width="190" height="30" as="geometry" />
        </mxCell>
        <mxCell id="Wh88uekVp4weN3XpvIQh-13" value="Час кінця роботи тролейбусів" style="text;strokeColor=none;fillColor=none;spacingLeft=4;spacingRight=4;overflow=hidden;rotatable=0;points=[[0,0.5],[1,0.5]];portConstraint=eastwest;fontSize=12;" parent="Wh88uekVp4weN3XpvIQh-10" vertex="1">
          <mxGeometry y="90" width="190" height="30" as="geometry" />
        </mxCell>
        <mxCell id="Wh88uekVp4weN3XpvIQh-14" value="Початковий пункт" style="text;strokeColor=none;fillColor=none;spacingLeft=4;spacingRight=4;overflow=hidden;rotatable=0;points=[[0,0.5],[1,0.5]];portConstraint=eastwest;fontSize=12;" parent="Wh88uekVp4weN3XpvIQh-10" vertex="1">
          <mxGeometry y="120" width="190" height="30" as="geometry" />
        </mxCell>
        <mxCell id="Wh88uekVp4weN3XpvIQh-15" value="Кінцевий пункт" style="text;strokeColor=none;fillColor=none;spacingLeft=4;spacingRight=4;overflow=hidden;rotatable=0;points=[[0,0.5],[1,0.5]];portConstraint=eastwest;fontSize=12;" parent="Wh88uekVp4weN3XpvIQh-10" vertex="1">
          <mxGeometry y="150" width="190" height="30" as="geometry" />
        </mxCell>
        <mxCell id="Wh88uekVp4weN3XpvIQh-16" value="Приблизна тривалість маршруту" style="text;strokeColor=none;fillColor=none;spacingLeft=4;spacingRight=4;overflow=hidden;rotatable=0;points=[[0,0.5],[1,0.5]];portConstraint=eastwest;fontSize=12;" parent="Wh88uekVp4weN3XpvIQh-10" vertex="1">
          <mxGeometry y="180" width="190" height="30" as="geometry" />
        </mxCell>
        <mxCell id="Wh88uekVp4weN3XpvIQh-18" value="" style="edgeStyle=elbowEdgeStyle;fontSize=12;html=1;endArrow=ERoneToMany;startArrow=ERmandOne;exitX=0.5;exitY=0;exitDx=0;exitDy=0;" parent="Wh88uekVp4weN3XpvIQh-1" source="Wh88uekVp4weN3XpvIQh-10" edge="1">
          <mxGeometry width="100" height="100" relative="1" as="geometry">
            <mxPoint x="250" y="260" as="sourcePoint" />
            <mxPoint x="329" y="160" as="targetPoint" />
            <Array as="points">
              <mxPoint x="330" y="240" />
            </Array>
          </mxGeometry>
        </mxCell>
        <mxCell id="Wh88uekVp4weN3XpvIQh-20" value="Має" style="text;html=1;strokeColor=none;fillColor=none;align=center;verticalAlign=middle;whiteSpace=wrap;rounded=0;" parent="Wh88uekVp4weN3XpvIQh-1" vertex="1">
          <mxGeometry x="330" y="260" width="40" height="20" as="geometry" />
        </mxCell>
        <mxCell id="Wh88uekVp4weN3XpvIQh-21" value="Працює на" style="text;html=1;strokeColor=none;fillColor=none;align=center;verticalAlign=middle;whiteSpace=wrap;rounded=0;" parent="Wh88uekVp4weN3XpvIQh-1" vertex="1">
          <mxGeometry x="280" y="190" width="40" height="20" as="geometry" />
        </mxCell>
        <mxCell id="Wh88uekVp4weN3XpvIQh-22" value="Закріплений за" style="text;html=1;strokeColor=none;fillColor=none;align=center;verticalAlign=middle;whiteSpace=wrap;rounded=0;" parent="Wh88uekVp4weN3XpvIQh-1" vertex="1">
          <mxGeometry x="440" y="10" width="40" height="20" as="geometry" />
        </mxCell>
        <mxCell id="Wh88uekVp4weN3XpvIQh-23" value="Має" style="text;html=1;strokeColor=none;fillColor=none;align=center;verticalAlign=middle;whiteSpace=wrap;rounded=0;" parent="Wh88uekVp4weN3XpvIQh-1" vertex="1">
          <mxGeometry x="550" y="10" width="40" height="20" as="geometry" />
        </mxCell>
        <mxCell id="Wh88uekVp4weN3XpvIQh-25" value="Зупинка" style="swimlane;fontStyle=0;childLayout=stackLayout;horizontal=1;startSize=30;horizontalStack=0;resizeParent=1;resizeParentMax=0;resizeLast=0;collapsible=1;marginBottom=0;align=center;fontSize=14;" parent="Wh88uekVp4weN3XpvIQh-1" vertex="1">
          <mxGeometry x="550" y="350" width="220" height="120" as="geometry" />
        </mxCell>
        <mxCell id="Wh88uekVp4weN3XpvIQh-26" value="Назва" style="text;strokeColor=none;fillColor=none;spacingLeft=4;spacingRight=4;overflow=hidden;rotatable=0;points=[[0,0.5],[1,0.5]];portConstraint=eastwest;fontSize=12;" parent="Wh88uekVp4weN3XpvIQh-25" vertex="1">
          <mxGeometry y="30" width="220" height="30" as="geometry" />
        </mxCell>
        <mxCell id="Wh88uekVp4weN3XpvIQh-43" value="ID маршрута" style="text;strokeColor=none;fillColor=none;spacingLeft=4;spacingRight=4;overflow=hidden;rotatable=0;points=[[0,0.5],[1,0.5]];portConstraint=eastwest;fontSize=12;" parent="Wh88uekVp4weN3XpvIQh-25" vertex="1">
          <mxGeometry y="60" width="220" height="30" as="geometry" />
        </mxCell>
        <mxCell id="Wh88uekVp4weN3XpvIQh-27" value="Приблизний час прибуття" style="text;strokeColor=none;fillColor=none;spacingLeft=4;spacingRight=4;overflow=hidden;rotatable=0;points=[[0,0.5],[1,0.5]];portConstraint=eastwest;fontSize=12;" parent="Wh88uekVp4weN3XpvIQh-25" vertex="1">
          <mxGeometry y="90" width="220" height="30" as="geometry" />
        </mxCell>
        <mxCell id="Wh88uekVp4weN3XpvIQh-28" value="" style="edgeStyle=entityRelationEdgeStyle;fontSize=12;html=1;endArrow=ERoneToMany;startArrow=ERmandOne;entryX=0;entryY=0.25;entryDx=0;entryDy=0;" parent="Wh88uekVp4weN3XpvIQh-1" target="Wh88uekVp4weN3XpvIQh-25" edge="1">
          <mxGeometry width="100" height="100" relative="1" as="geometry">
            <mxPoint x="434" y="320" as="sourcePoint" />
            <mxPoint x="490" y="160" as="targetPoint" />
          </mxGeometry>
        </mxCell>
        <mxCell id="Wh88uekVp4weN3XpvIQh-29" value="Графік роботи" style="swimlane;fontStyle=0;childLayout=stackLayout;horizontal=1;startSize=30;horizontalStack=0;resizeParent=1;resizeParentMax=0;resizeLast=0;collapsible=1;marginBottom=0;align=center;fontSize=14;" parent="Wh88uekVp4weN3XpvIQh-1" vertex="1">
          <mxGeometry x="20" y="10" width="160" height="150" as="geometry" />
        </mxCell>
        <mxCell id="Wh88uekVp4weN3XpvIQh-46" value="ID graphic" style="text;strokeColor=none;fillColor=none;spacingLeft=4;spacingRight=4;overflow=hidden;rotatable=0;points=[[0,0.5],[1,0.5]];portConstraint=eastwest;fontSize=12;" parent="Wh88uekVp4weN3XpvIQh-29" vertex="1">
          <mxGeometry y="30" width="160" height="30" as="geometry" />
        </mxCell>
        <mxCell id="Wh88uekVp4weN3XpvIQh-30" value="Час початку роботи" style="text;strokeColor=none;fillColor=none;spacingLeft=4;spacingRight=4;overflow=hidden;rotatable=0;points=[[0,0.5],[1,0.5]];portConstraint=eastwest;fontSize=12;" parent="Wh88uekVp4weN3XpvIQh-29" vertex="1">
          <mxGeometry y="60" width="160" height="30" as="geometry" />
        </mxCell>
        <mxCell id="Wh88uekVp4weN3XpvIQh-31" value="Час закінчення роботи" style="text;strokeColor=none;fillColor=none;spacingLeft=4;spacingRight=4;overflow=hidden;rotatable=0;points=[[0,0.5],[1,0.5]];portConstraint=eastwest;fontSize=12;" parent="Wh88uekVp4weN3XpvIQh-29" vertex="1">
          <mxGeometry y="90" width="160" height="30" as="geometry" />
        </mxCell>
        <mxCell id="Wh88uekVp4weN3XpvIQh-32" value="Дата(робочі дні)" style="text;strokeColor=none;fillColor=none;spacingLeft=4;spacingRight=4;overflow=hidden;rotatable=0;points=[[0,0.5],[1,0.5]];portConstraint=eastwest;fontSize=12;" parent="Wh88uekVp4weN3XpvIQh-29" vertex="1">
          <mxGeometry y="120" width="160" height="30" as="geometry" />
        </mxCell>
        <mxCell id="Wh88uekVp4weN3XpvIQh-33" value="Має" style="text;html=1;strokeColor=none;fillColor=none;align=center;verticalAlign=middle;whiteSpace=wrap;rounded=0;" parent="Wh88uekVp4weN3XpvIQh-1" vertex="1">
          <mxGeometry x="432" y="330" width="40" height="20" as="geometry" />
        </mxCell>
        <mxCell id="Wh88uekVp4weN3XpvIQh-34" value="" style="edgeStyle=entityRelationEdgeStyle;fontSize=12;html=1;endArrow=ERoneToMany;startArrow=ERmandOne;exitX=1;exitY=0.25;exitDx=0;exitDy=0;entryX=0;entryY=0.104;entryDx=0;entryDy=0;entryPerimeter=0;" parent="Wh88uekVp4weN3XpvIQh-1" source="Wh88uekVp4weN3XpvIQh-29" target="Wh88uekVp4weN3XpvIQh-2" edge="1">
          <mxGeometry width="100" height="100" relative="1" as="geometry">
            <mxPoint x="390" y="260" as="sourcePoint" />
            <mxPoint x="490" y="160" as="targetPoint" />
          </mxGeometry>
        </mxCell>
        <mxCell id="Wh88uekVp4weN3XpvIQh-35" value="Має" style="text;html=1;strokeColor=none;fillColor=none;align=center;verticalAlign=middle;whiteSpace=wrap;rounded=0;" parent="Wh88uekVp4weN3XpvIQh-1" vertex="1">
          <mxGeometry x="210" y="20" width="40" height="20" as="geometry" />
        </mxCell>
        <mxCell id="cLYLjjtuuJsPtHnjhVxL-0" value="" style="edgeStyle=elbowEdgeStyle;fontSize=12;html=1;endArrow=ERoneToMany;startArrow=ERmandOne;entryX=1.013;entryY=0.054;entryDx=0;entryDy=0;entryPerimeter=0;" parent="Wh88uekVp4weN3XpvIQh-1" target="Wh88uekVp4weN3XpvIQh-2" edge="1">
          <mxGeometry width="100" height="100" relative="1" as="geometry">
            <mxPoint x="600" y="40" as="sourcePoint" />
            <mxPoint x="339" y="170" as="targetPoint" />
            <Array as="points">
              <mxPoint x="500" y="-20" />
            </Array>
          </mxGeometry>
        </mxCell>
      </root>
    </mxGraphModel>
  </diagram>
</mxfile>
